<svg width="96" height="96" xmlns="http://www.w3.org/2000/svg" xmlns:xlink="http://www.w3.org/1999/xlink" xml:space="preserve" overflow="hidden"><g transform="translate(-25 -444)"><path d="M52.372 515.293C52.8581 511.736 50.3688 508.459 46.812 507.973 43.2553 507.487 39.9778 509.976 39.4917 513.533 39.0056 517.089 41.4949 520.367 45.0517 520.853 45.0518 520.853 45.0519 520.853 45.052 520.853 48.6087 521.339 51.8859 518.85 52.372 515.293Z" fill="#AEAEAE"/><path d="M106 526 106 474.1 107.18 474.1C107.267 474.099 107.354 474.092 107.44 474.08 107.578 474.06 107.713 474.02 107.84 473.96 107.917 473.928 107.991 473.888 108.06 473.84 108.339 473.676 108.554 473.422 108.67 473.12 108.71 473.049 108.737 472.971 108.75 472.89L108.77 472.82 111.47 459.92 111.47 459.89C111.492 459.792 111.502 459.691 111.5 459.59 111.5 458.82 111.11 457.42 108.52 456.64 107.689 456.409 106.839 456.254 105.98 456.18 105.904 455.14 105.033 454.339 103.99 454.35 102.949 454.328 102.076 455.131 102.01 456.17L101.99 456.17C98.52 456.49 96.5 457.72 96.5 459.58 96.5 459.63 96.51 459.69 96.51 459.74 96.5152 459.794 96.5252 459.848 96.54 459.9 96.5415 459.945 96.5516 459.989 96.57 460.03L99.21 472.72 99.25 472.89C99.25 472.9 99.25 472.9 99.26 472.92 99.2839 473.005 99.314 473.089 99.35 473.17 99.3615 473.201 99.3748 473.231 99.39 473.26L99.51 473.44C99.52 473.47 99.55 473.49 99.57 473.52 99.6122 473.577 99.6628 473.628 99.72 473.67 99.74 473.71 99.78 473.73 99.81 473.76 99.89 473.82 99.96 473.85 100.04 473.9 100.12 473.946 100.204 473.986 100.29 474.02 100.376 474.045 100.462 474.065 100.55 474.08 100.636 474.092 100.723 474.098 100.81 474.1L102 474.1 102 505.151 99.8 507.427 97.485 502.891 94.74 507.613 92.184 503.7 90 504.916C90 504.916 88.182 502.769 87.69 502.022L78.614 490.173C77.5925 488.62 76.0085 487.523 74.195 487.113L68.795 486.375 49.785 483.775C47.9283 483.701 46.1122 484.331 44.7 485.539L32.946 494.539C32.2106 495.086 31.7302 495.909 31.616 496.819L30.855 502.383 30.449 505.355 30.443 505.4C29.9497 509.08 32.5225 512.467 36.2 512.979L37.033 513.093C37.7081 508.044 42.3482 504.499 47.397 505.174 47.4147 505.176 47.4324 505.178 47.45 505.181 52.5482 505.971 56.0622 510.716 55.332 515.823L65.422 517.2 77 518.783C77.6664 513.667 82.3246 510.039 87.448 510.646 92.4968 511.321 96.0424 515.961 95.3672 521.01 95.3649 521.028 95.3625 521.045 95.36 521.063L99.526 521.632C100.404 521.751 101.294 521.517 102 520.981L102 526 88.929 526C92.1998 524.52 93.6518 520.669 92.1722 517.399 90.6927 514.128 86.8418 512.676 83.571 514.156 80.3002 515.635 78.8482 519.486 80.3278 522.757 80.9788 524.196 82.1317 525.349 83.571 526L29 526 29 530 117 530 117 526ZM58.063 499.038 36.556 496.1 46.79 488.286C47.6008 487.782 48.5708 487.6 49.509 487.776L59.417 489.13ZM61.036 499.444 62.39 489.536 73.736 491.087C74.614 491.132 75.4262 491.566 75.951 492.271L83.714 502.543ZM102.75 470.1 100.73 460.43C101.209 460.306 101.697 460.219 102.19 460.17L105.66 460.17C106.208 460.211 106.75 460.305 107.28 460.45L105.25 470.1Z" fill="#AEAEAE"/></g></svg>